<svg width="44" height="44" viewBox="0 0 44 44" fill="none" xmlns="http://www.w3.org/2000/svg">
<path fill-rule="evenodd" clip-rule="evenodd" d="M3.59082 10.7578C3.59082 8.85571 4.34748 7.03152 5.69433 5.68653C7.04118 4.34154 8.86791 3.58594 10.7726 3.58594H32.3181C34.2229 3.58594 36.0496 4.34154 37.3965 5.68653C38.7433 7.03152 39.5 8.85571 39.5 10.7578V32.2734C39.5 34.1755 38.7433 35.9997 37.3965 37.3447C36.0496 38.6897 34.2229 39.4453 32.3181 39.4453H10.7726C8.86791 39.4453 7.04118 38.6897 5.69433 37.3447C4.34748 35.9997 3.59082 34.1755 3.59082 32.2734V10.7578ZM10.7726 7.17188C9.82028 7.17188 8.90692 7.54968 8.23349 8.22217C7.56006 8.89467 7.18173 9.80676 7.18173 10.7578V32.2734C7.18173 33.2245 7.56006 34.1366 8.23349 34.8091C8.90692 35.4816 9.82028 35.8594 10.7726 35.8594H21.5454V23.3086H19.7499C19.2738 23.3086 18.8171 23.1197 18.4804 22.7834C18.1436 22.4472 17.9545 21.9911 17.9545 21.5156C17.9545 21.0401 18.1436 20.5841 18.4804 20.2478C18.8171 19.9116 19.2738 19.7227 19.7499 19.7227H21.5454V17.0332C21.5454 15.3689 22.2075 13.7727 23.386 12.5958C24.5645 11.419 26.1628 10.7578 27.8295 10.7578H28.9068C29.383 10.7578 29.8396 10.9467 30.1763 11.283C30.5131 11.6192 30.7022 12.0753 30.7022 12.5508C30.7022 13.0263 30.5131 13.4824 30.1763 13.8186C29.8396 14.1548 29.383 14.3438 28.9068 14.3438H27.8295C27.4758 14.3438 27.1256 14.4133 26.7989 14.5485C26.4721 14.6836 26.1752 14.8817 25.9251 15.1315C25.675 15.3812 25.4767 15.6777 25.3413 16.004C25.206 16.3303 25.1363 16.68 25.1363 17.0332V19.7227H28.9068C29.383 19.7227 29.8396 19.9116 30.1763 20.2478C30.5131 20.5841 30.7022 21.0401 30.7022 21.5156C30.7022 21.9911 30.5131 22.4472 30.1763 22.7834C29.8396 23.1197 29.383 23.3086 28.9068 23.3086H25.1363V35.8594H32.3181C33.2705 35.8594 34.1839 35.4816 34.8573 34.8091C35.5307 34.1366 35.909 33.2245 35.909 32.2734V10.7578C35.909 9.80676 35.5307 8.89467 34.8573 8.22217C34.1839 7.54968 33.2705 7.17188 32.3181 7.17188H10.7726Z" fill="#F7F6F5"/>
</svg>
